<svg width="28" height="22" viewBox="0 0 28 22" fill="none" xmlns="http://www.w3.org/2000/svg">
<path fill-rule="evenodd" clip-rule="evenodd" d="M0.9375 20.5C0.9375 20.1851 1.06261 19.883 1.28531 19.6603C1.50801 19.4376 1.81006 19.3125 2.125 19.3125H25.875C26.1899 19.3125 26.492 19.4376 26.7147 19.6603C26.9374 19.883 27.0625 20.1851 27.0625 20.5C27.0625 20.8149 26.9374 21.117 26.7147 21.3397C26.492 21.5624 26.1899 21.6875 25.875 21.6875H2.125C1.81006 21.6875 1.50801 21.5624 1.28531 21.3397C1.06261 21.117 0.9375 20.8149 0.9375 20.5ZM0.9375 11C0.9375 10.6851 1.06261 10.383 1.28531 10.1603C1.50801 9.93761 1.81006 9.8125 2.125 9.8125H25.875C26.1899 9.8125 26.492 9.93761 26.7147 10.1603C26.9374 10.383 27.0625 10.6851 27.0625 11C27.0625 11.3149 26.9374 11.617 26.7147 11.8397C26.492 12.0624 26.1899 12.1875 25.875 12.1875H2.125C1.81006 12.1875 1.50801 12.0624 1.28531 11.8397C1.06261 11.617 0.9375 11.3149 0.9375 11ZM0.9375 1.5C0.9375 1.18506 1.06261 0.88301 1.28531 0.660311C1.50801 0.437611 1.81006 0.3125 2.125 0.3125H25.875C26.1899 0.3125 26.492 0.437611 26.7147 0.660311C26.9374 0.88301 27.0625 1.18506 27.0625 1.5C27.0625 1.81494 26.9374 2.11699 26.7147 2.33969C26.492 2.56239 26.1899 2.6875 25.875 2.6875H2.125C1.81006 2.6875 1.50801 2.56239 1.28531 2.33969C1.06261 2.11699 0.9375 1.81494 0.9375 1.5Z" fill="black"/>
</svg>
